<svg width="600" height="400" viewBox="0 0 600 400" fill="none" xmlns="http://www.w3.org/2000/svg">
<rect width="600" height="400" fill="url(#paint0_radial_289_3)"/>
<path d="M122.328 203.936H126.68V214.848H122.328V203.936ZM132.568 203.936H136.92V214.848H132.568V203.936ZM116.28 201.696H143.128V205.12H116.28V201.696ZM129.624 186.208C135.96 186.208 140.344 188.8 140.344 192.864C140.344 196.864 135.96 199.456 129.624 199.456C123.32 199.456 118.936 196.864 118.936 192.864C118.936 188.8 123.32 186.208 129.624 186.208ZM129.624 189.6C125.752 189.6 123.288 190.752 123.288 192.864C123.288 194.944 125.752 196.096 129.624 196.096C133.528 196.096 135.96 194.944 135.96 192.864C135.96 190.752 133.528 189.6 129.624 189.6ZM145.718 202.72H172.534V206.176H145.718V202.72ZM149.046 197.344H169.75V200.672H149.046V197.344ZM149.046 186.4H169.43V189.728H153.238V198.08H149.046V186.4ZM152.054 191.872H168.79V195.104H152.054V191.872ZM151.894 204.416H156.182V214.848H151.894V204.416ZM162.134 204.416H166.422V214.848H162.134V204.416ZM175.187 207.84H202.003V211.328H175.187V207.84ZM178.003 187.136H182.227V191.936H194.867V187.136H199.091V202.944H178.003V187.136ZM182.227 195.232V199.584H194.867V195.232H182.227ZM223.881 188.512H227.561V189.376C227.561 194.592 223.305 198.848 215.785 199.872L214.217 196.544C220.745 195.744 223.881 192.416 223.881 189.376V188.512ZM225.097 188.512H228.777V189.376C228.777 192.416 231.913 195.744 238.441 196.544L236.905 199.872C229.353 198.848 225.097 194.592 225.097 189.376V188.512ZM224.105 204H228.329V214.88H224.105V204ZM212.937 201.568H239.721V204.96H212.937V201.568ZM215.305 186.72H237.289V190.08H215.305V186.72ZM242.375 207.904H269.191V211.392H242.375V207.904ZM253.511 201.312H257.735V208.832H253.511V201.312ZM253.351 186.848H257.062V188.992C257.062 195.296 252.487 200.864 244.743 202.272L242.983 198.72C249.735 197.632 253.351 193.088 253.351 188.992V186.848ZM254.183 186.848H257.895V188.992C257.895 193.184 261.511 197.632 268.295 198.72L266.535 202.272C258.759 200.832 254.183 195.392 254.183 188.992V186.848ZM271.78 198.496H298.628V201.6H271.78V198.496ZM274.788 203.072H295.428V210.112H279.076V212.64H274.852V207.424H291.236V205.952H274.788V203.072ZM274.852 211.744H296.26V214.624H274.852V211.744ZM275.076 185.728H295.364V192.704H279.332V195.136H275.108V190.048H291.172V188.576H275.076V185.728ZM275.108 194.24H295.908V197.12H275.108V194.24ZM329.882 185.216H334.17V201.152H329.882V185.216ZM314.458 202.432H318.65V205.184H329.946V202.432H334.17V214.528H314.458V202.432ZM318.65 208.448V211.136H329.946V208.448H318.65ZM318.042 186.432C322.65 186.432 326.074 189.344 326.074 193.44C326.074 197.536 322.65 200.448 318.042 200.448C313.434 200.448 309.978 197.536 309.978 193.44C309.978 189.344 313.434 186.432 318.042 186.432ZM318.042 189.952C315.77 189.952 314.138 191.264 314.138 193.44C314.138 195.648 315.77 196.928 318.042 196.928C320.282 196.928 321.914 195.648 321.914 193.44C321.914 191.264 320.282 189.952 318.042 189.952ZM340.088 199.328H342.36C347.864 199.328 350.744 199.232 354.104 198.624L354.52 201.984C351.064 202.624 348.024 202.72 342.36 202.72H340.088V199.328ZM340.056 186.912H353.08V196.256H344.312V201.568H340.088V193.088H348.856V190.272H340.056V186.912ZM359.512 185.248H363.768V203.488H359.512V185.248ZM354.776 189.312H360.28V192.704H354.776V189.312ZM354.776 195.616H360.28V199.008H354.776V195.616ZM343.48 204.832H363.768V214.88H359.512V208.224H343.48V204.832ZM368.373 189.664H382.549V193.056H368.373V189.664ZM375.509 194.368C379.285 194.368 382.005 197.28 382.005 201.44C382.005 205.568 379.285 208.48 375.509 208.48C371.765 208.48 369.013 205.568 369.013 201.44C369.013 197.28 371.765 194.368 375.509 194.368ZM375.509 197.92C373.909 197.92 372.789 199.2 372.789 201.44C372.789 203.68 373.909 204.928 375.509 204.928C377.109 204.928 378.261 203.68 378.261 201.44C378.261 199.2 377.109 197.92 375.509 197.92ZM389.813 185.216H393.877V214.848H389.813V185.216ZM386.261 197.248H391.157V200.672H386.261V197.248ZM383.605 185.76H387.573V213.6H383.605V185.76ZM373.429 186.016H377.621V191.808H373.429V186.016ZM408.819 188.512H412.499V189.376C412.499 194.592 408.243 198.848 400.723 199.872L399.155 196.544C405.683 195.744 408.819 192.416 408.819 189.376V188.512ZM410.035 188.512H413.715V189.376C413.715 192.416 416.851 195.744 423.379 196.544L421.843 199.872C414.291 198.848 410.035 194.592 410.035 189.376V188.512ZM409.043 204H413.267V214.88H409.043V204ZM397.875 201.568H424.659V204.96H397.875V201.568ZM400.243 186.72H422.227V190.08H400.243V186.72ZM438.96 195.168H443.856V198.624H438.96V195.168ZM432.624 187.776H435.888V192.768C435.888 199.488 434.032 206.048 429.296 208.96L426.736 205.76C431.088 203.072 432.624 197.792 432.624 192.768V187.776ZM433.552 187.776H436.752V192.576C436.752 197.408 438 202.336 442.032 204.96L439.728 208.288C435.024 205.376 433.552 198.976 433.552 192.576V187.776ZM448.688 185.216H452.752V214.848H448.688V185.216ZM442.672 185.664H446.64V213.504H442.672V185.664ZM462.638 200.256H466.862V208.576H462.638V200.256ZM473.39 200.256H477.646V208.576H473.39V200.256ZM456.75 207.968H483.566V211.424H456.75V207.968ZM470.126 186.656C476.494 186.656 481.198 189.792 481.198 194.624C481.198 199.456 476.494 202.56 470.126 202.56C463.726 202.56 459.054 199.456 459.054 194.624C459.054 189.792 463.726 186.656 470.126 186.656ZM470.126 189.984C465.998 189.984 463.246 191.68 463.246 194.624C463.246 197.536 465.998 199.264 470.126 199.264C474.253 199.264 477.006 197.536 477.006 194.624C477.006 191.68 474.253 189.984 470.126 189.984Z" fill="black"/>
<defs>
<radialGradient id="paint0_radial_289_3" cx="0" cy="0" r="1" gradientUnits="userSpaceOnUse" gradientTransform="translate(300 200) rotate(90) scale(200 300)">
<stop stop-color="white"/>
<stop offset="1" stop-color="#EBFFED"/>
</radialGradient>
</defs>
</svg>
